<svg width="875" height="413" viewBox="0 0 875 413" fill="none" xmlns="http://www.w3.org/2000/svg">
<path d="M176.132 143.974C174.986 141.954 132.135 155.982 107.588 195.314C97.0535 212.197 93.4724 227.647 89.3323 247.509C84.7375 269.587 79.4322 296.571 89.0292 325.822C93.3114 338.891 97.5367 351.755 107.863 355.785C125.598 362.711 149.927 340.159 161.807 323.73C172.958 308.31 179.088 290.17 180.84 290.953C182.508 291.706 176.141 307.713 180.12 310.578C182.877 312.557 189.092 307.177 196.662 300.632C207.632 291.139 213.127 286.387 215.572 279.121C219.143 268.546 214.889 258.249 212.294 250.921C202.157 222.277 197.903 184.296 203.436 155.776C207.926 132.637 219.825 110.744 216.14 108.436C214.463 107.384 211.744 111.796 206.571 111.342C199.542 110.724 197.192 101.911 193.839 102.087C186.733 102.468 183.143 142.635 182.1 154.096C182.1 154.096 177.42 205.642 170.22 255.6C170.04 256.816 166.753 276.379 154.418 313.433C148.733 330.501 145.541 334.727 141.249 336.005C133.822 338.221 126.11 330.739 125.039 329.687C119.497 324.307 117.887 317.422 114.883 303.878C113.197 296.292 111.17 286.83 111.425 274.05C111.596 265.752 112.714 259.867 114.94 248.107C116.608 239.294 118.626 228.874 123.069 215.763C126.764 204.879 129.236 197.448 134.513 188.614C141.315 177.215 148.895 169.886 162.613 156.632C173.204 146.438 176.463 144.562 176.132 143.974Z" fill="black"/>
<path d="M64.6185 281.018C67.1954 281.647 69.5259 278.132 79.8146 262.651C92.4337 243.665 94.4612 240.624 93.9969 235.471C93.5517 230.585 90.5484 226.576 84.542 218.567C78.3461 210.311 74.945 205.776 70.0186 204.972C62.5721 203.756 55.6752 211.703 51.1088 217.464C30.7684 243.119 20.3377 271.154 18.3576 276.606C9.85957 299.942 2.55523 320.473 0.802564 348.241C0.802564 348.241 -0.466933 368.236 6.20266 391.953C8.77955 401.106 11.2049 406.053 15.6576 409.217C24.2409 415.329 35.4295 411.33 39.2949 409.949C49.7445 406.218 56.1962 398.591 68.6733 383.501C83.4146 365.67 80.2977 364.649 88.9284 357.414C97.6917 350.075 105.441 347.323 106.825 339.047C107.118 337.294 106.796 333.594 106.152 326.194C105.451 318.144 105.081 314.114 104.124 313.702C100.752 312.269 93.438 329.791 79.8146 348.972C67.347 366.515 54.1404 385.088 39.6359 383.14C28.6273 381.656 21.8819 369.04 20.385 366.237C17.8555 361.506 15.2691 354.353 17.685 324.72C19.8924 297.623 23.9756 279.946 30.181 263.733C37.2864 245.149 41.4549 243.459 43.6907 243.531C48.2003 243.665 51.8004 251.189 55.1731 258.229C61.729 271.927 60.9237 280.121 64.6185 281.018Z" fill="black"/>
<path d="M326.476 155.323C324.723 154.21 320.801 164.62 311.279 169.65C294.681 178.421 273.138 164.465 269.244 161.94C252.617 151.169 244.934 135.76 230.24 106.282C221.183 88.1104 216.655 79.0298 214.03 67.7127C211.927 58.6321 211.738 52.9633 208.962 52.283C203.96 51.0668 193.624 66.816 194.277 82.5858C194.552 89.3472 196.731 93.1505 199.346 99.6646C202.557 107.683 204.736 120.371 208.971 145.397C213.49 172.154 215.755 185.543 216.569 194.438C218.909 220.01 217.109 237.996 213.528 273.792C210.146 307.63 208.45 324.544 201.875 344.323C193.301 370.122 182.577 385.634 184.15 386.758C185.94 388.036 201.885 369.091 214.542 343.777C224.698 323.462 222.377 319.762 232.267 299.148C242.821 277.152 245.483 281.327 264.687 249.004C283.853 216.753 283.881 208.085 297.609 198.303C303.293 194.263 309.764 191.13 316.348 182.327C325.017 170.732 328.437 156.57 326.476 155.323ZM283.237 199.251C268.628 224.256 252.854 248.499 239.657 274.452C235.82 282.007 226.09 276.565 227.502 268.876C233.395 236.635 238.018 203.096 227.502 171.361C226.943 169.67 227.028 168.124 227.531 166.805C227.493 166.722 227.455 166.64 227.417 166.547C224.006 158.085 235.47 150.726 238.909 159.239C245.493 175.566 264.355 184.378 279.258 188.615C283.303 189.769 285.53 195.324 283.237 199.251Z" fill="black"/>
<path d="M277.786 147.485C278.648 127.984 296.496 109.277 302.768 112.214C308.888 115.079 299.215 136.312 304.123 173.933C305.127 181.601 307.552 199.299 316.278 219.49C332.876 257.894 351.397 281.941 351.397 281.941C354.571 286.053 359.412 292.021 359.498 300.308C359.554 305.492 357.735 310.13 347.343 325.292C336.931 340.474 331.72 348.071 329.787 348.071C313.227 348.081 300.542 255.049 287.24 197.454C285.886 191.599 284.313 183.755 281.158 168.068C277.861 151.618 277.681 149.886 277.786 147.485Z" fill="black"/>
<path d="M265.033 45.9151C267.581 38.0509 259.945 34.0414 261.66 21.6729C262.598 14.9115 265.582 11.0051 266.634 9.74764C268.396 7.645 271.229 4.24367 273.815 4.77964C279.926 6.0371 277.036 27.6201 283.943 30.4958C292.185 33.928 306.595 7.4904 310.28 9.92287C312.431 11.3452 310.782 22.4563 304.539 29.9392C298.883 36.7212 293.388 35.8142 292.043 40.7719C290.328 47.1108 299.29 50.5327 299.47 60.613C299.66 70.7655 292.848 81.5982 286.643 81.9177C282.815 82.1136 281.432 78.2175 277.86 78.9802C272.186 80.1965 270.651 91.1632 268.406 90.7406C266.416 90.3695 268.415 81.8868 264.351 77.5166C258.894 71.6519 247.194 79.3513 244.768 75.3109C242.362 71.3118 251.533 60.2111 252.868 58.5928C259.955 50.0174 263.384 51.0068 265.033 45.9151Z" fill="black"/>
<path d="M711.497 143.271C712.36 123.77 730.208 105.063 736.48 108C742.6 110.866 732.927 132.098 737.835 169.719C738.839 177.387 741.264 195.085 749.99 215.276C766.588 253.68 785.109 277.727 785.109 277.727C788.283 281.839 793.124 287.807 793.209 296.094C793.266 301.278 791.447 305.917 781.054 321.078C770.643 336.261 765.432 343.857 763.499 343.857C746.939 343.867 734.254 250.836 720.952 193.24C719.598 187.385 718.025 179.542 714.87 163.854C711.573 147.414 711.393 145.683 711.497 143.271Z" fill="black"/>
<path d="M698.745 41.7008C701.294 33.8365 693.658 29.8271 695.372 17.4586C696.31 10.6971 699.295 6.79075 700.346 5.53329C702.108 3.43065 704.941 0.0293151 707.527 0.565283C713.638 1.82275 710.748 23.4057 717.655 26.2814C725.897 29.7137 740.307 3.27604 743.992 5.70851C746.143 7.13089 744.494 18.2419 738.251 25.7248C732.595 32.5069 727.1 31.5999 725.755 36.5576C724.04 42.8964 733.003 46.3184 733.183 56.3987C733.372 66.5511 726.56 77.3839 720.355 77.7034C716.528 77.8992 715.144 74.0032 711.573 74.7659C705.898 75.9821 704.363 86.9488 702.118 86.5262C700.128 86.1552 702.127 77.6725 698.063 73.3023C692.606 67.4375 680.906 75.1369 678.48 71.0966C676.074 67.0974 685.245 55.9967 686.581 54.3785C693.667 45.8133 697.097 46.7925 698.745 41.7008Z" fill="black"/>
<path d="M416.535 151.992C418.666 150.013 431.475 138.088 428.699 130.193C427.344 126.327 422.816 124.987 420.59 124.225C414.252 122.05 405.071 113.083 386.711 95.1588C356.65 65.8043 352.937 47.2825 342.819 49.2202C332.653 51.158 328.087 71.4113 326.599 78.0285C324.875 85.6866 323.293 98.4056 331.374 131.491C335.296 147.56 338.669 161.382 346.4 179.244C370.208 234.253 396.715 238.396 394.347 261C392.045 283.046 364.836 298.054 328.03 318.358C313.374 326.449 316.368 323.1 286.279 337.303C231.87 362.988 211.464 378.923 197.537 368.451C196.656 367.791 190.754 363.225 190.204 356.371C189.058 342.034 212.174 328.305 236.418 314.205C260.33 300.311 264.119 301.939 273.394 292.148C283.219 281.768 282.195 276.522 296.056 252.434C310.191 227.873 322.753 213.35 322.061 212.721C321.247 211.979 305.89 234.242 280.31 258.145C264.915 272.533 263.958 270.565 239.753 290.591C195.273 327.398 186.453 344.044 182.019 355.732C178.172 365.884 172.052 382.036 178.201 389.477C186.367 399.351 210.042 386.468 264.081 361.442C334.245 328.954 363.86 318.482 390.756 285.139C409.496 261.907 410.036 248.507 407.932 240.757C405.668 232.387 400.088 229.779 388.132 214.546C378.829 202.703 373.192 192.818 368.569 184.696C348.702 149.848 344.808 119.978 341.369 93.5922C340.194 84.5529 339.806 78.3686 342.089 77.2451C346.153 75.2456 353.638 91.8503 373.58 115.402C389.023 133.635 396.422 137.727 395.531 145.777C394.006 159.537 370.492 164.391 371.43 167.566C372.415 170.813 397.994 169.246 416.535 151.992Z" fill="black"/>
<path d="M477.745 90.1989C476.162 89.1991 472.344 92.9406 464.728 100.413C455.983 108.989 450.119 114.74 446.945 123.078C443.241 132.829 445.136 141.105 445.931 148.929C446.879 158.256 445.6 160.421 435.415 206.421C416.894 290.063 422.768 275.53 418.088 289.857C416.032 296.134 412.043 307.668 414.526 309.307C416.487 310.605 421.546 305.143 430.243 295.629C440.228 284.714 445.221 279.261 446.67 273.572C448.688 265.666 445.533 263.265 445.06 247.485C444.832 239.837 445.391 234.446 446.31 225.861C450.384 188.013 460.076 152.886 460.076 152.886C470.829 113.936 481.449 92.5386 477.745 90.1989Z" fill="black"/>
<path d="M389.929 66.6766C385.154 67.0167 383.885 72.6031 372.781 85.8786C362.644 98.01 359.063 98.9171 359.527 101.886C360.683 109.204 383.032 106.823 425.02 114.182C461.144 120.51 479.201 123.675 486.117 127.942C489.613 130.096 496.453 134.744 503.843 132.683C509.006 131.24 510.92 127.499 521.151 114.862C532.709 100.577 536.328 97.8554 535.353 95.9177C533.609 92.4236 520.886 99.1335 501.275 101.566C489.944 102.968 481.541 102.112 464.725 100.391C433.537 97.2061 417.943 95.6085 407.531 85.3839C398.247 76.2931 396.437 66.2127 389.929 66.6766Z" fill="black"/>
<path d="M470.196 30.1677C467.581 42.629 474.052 52.1115 479.31 64.3357C485.496 78.7243 486.983 95.7825 489.949 129.909C491.502 147.782 492.573 173.601 489.447 208.707C481.896 293.297 458.022 341.163 463.611 344.265C475.643 350.934 592.115 132.476 593.271 133.218C593.811 133.558 576.066 184.98 543.126 247.832C538.824 256.037 528.564 275.332 532.998 279.795C536.636 283.454 546.479 273.476 573.016 263.262C590.58 256.501 593.11 258.243 596.312 253.347C600.878 246.379 597.837 239.71 599.855 202.646C599.902 201.801 599.94 201.1 599.997 200.203C602.223 163.325 609.84 151.173 607.965 126.044C607.254 116.562 606.904 111.81 604.421 110.614C592.229 104.729 550.506 174.992 541.619 189.969C523.335 220.756 515.519 239.061 510.725 237.36C507.125 236.082 508.12 224.528 510.725 188.866C515.433 124.364 516.352 104.636 512.241 84.1665C508.754 66.7578 506.954 57.7907 501.1 47.2465C497.964 41.5983 494.705 37.3827 492.488 29.0649C489.295 17.0777 491.862 10.172 488.945 8.67747C484.823 6.57483 472.991 16.8613 470.196 30.1677Z" fill="black"/>
<path d="M679.159 191.696C674.867 195.015 655.418 156.981 631.401 163.691C616.148 167.959 606.694 188.129 606.267 189.057C596.244 211.083 613.136 216.969 622.108 269.463C624.116 281.233 625.603 294.571 636.006 305.311C643.765 313.309 652.32 315.587 655.02 316.215C657.748 316.844 674.308 320.689 678.6 314.968C684.284 307.393 661.945 291.685 643.537 252.971C627.849 219.999 631.411 204.796 635.864 195.788C639.047 189.366 645.565 180.265 651.571 179.935C658.08 179.585 660.941 189.727 666.36 208.95C672.338 230.172 675.332 240.788 673.039 256.239C671.769 264.814 669.95 267.69 671.684 272.256C674.602 279.935 682.93 280.192 701.148 287.057C719.091 293.818 719.963 296.941 722.54 295.354C730.763 290.303 721.687 258.692 696.401 153.498C689.618 125.287 675.701 100.169 671.182 71.0824C670.064 63.9293 668.634 52.4678 659.681 44.0985C653.712 38.5223 643.661 35.7497 623.794 30.4416C610.966 27.0093 604.524 25.3293 603.245 26.8341C597.997 33.039 637.209 55.4259 653.144 106.322C657.568 120.474 656.744 125.782 663.954 147.076C672.575 172.586 682.058 189.449 679.159 191.696Z" fill="black"/>
<path d="M872.061 125.24C868.489 110.366 858.627 87.7837 844.823 86.5675C843.118 86.4129 840.323 86.5056 822.977 99.6162C794.148 121.416 798.667 123.601 784.058 131.919C778.449 135.114 773.883 137.01 772.708 141.824C771.003 148.812 778.487 153.522 782.021 162.737C787.298 176.507 777.322 183.609 773.855 208.345C773.163 213.272 769.317 243.472 784.607 269.796C789.591 278.372 792.082 282.659 796.649 283.948C816.961 289.679 846.491 231.712 858.835 201.491C869.37 175.724 878.56 152.357 872.061 125.24ZM839.092 189.958C829.343 212.633 814.611 231.547 799.131 249.821C795.654 253.923 789.363 251.666 788.009 246.626C784.427 233.268 789.809 219.127 795.398 207.377C801.405 194.75 809.097 183.258 816.487 171.57C817.084 170.632 817.775 169.921 818.533 169.405C818.495 166.159 818.41 162.933 818.334 159.779C818.173 152.667 820.03 148.41 824.824 143.7C831.958 136.701 838.76 130.28 842.114 120.169C844.577 112.768 855.292 113.551 855.178 122.096C854.866 145.256 848.054 169.106 839.092 189.958Z" fill="black"/>
</svg>
